:FULLY-SPECIFIED
:FORCE-ALL-JOINTS-BE-3DOF
:DEGREES
204
root 4.89678 15.2178 -25.4613 7.21499 0.0255142 5.6347
lfemur 7.79778 -8.79258 3.62843
ltibia 3.63418 0 0
lfoot -32.2161 -16.7605 0
ltoes 55.9884 0 0
rfemur -29.4313 -18.6418 -8.76479
rtibia 49.4581 0 0
rfoot -28.082 15.8607 0
rtoes 58.8779 0 0
lowerback -2.63714 -1.8778 -1.05492
upperback -0.66661 -2.44686 -7.56537
thorax 0.489099 -1.23983 -7.3521
lowerneck -11.3948 0.354342 5.86241
upperneck 3.6616 -0.543354 2.82017
head 3.20921 -0.0556642 -0.146902
lclavicle 1.81317e-14 9.60056e-15 0
lhumerus -58.6723 -44.9834 115.102
lradius 54.58 0 0
lwrist 24.8044 0 0
lhand 39.8891 30.5228 0
lfingers 7.12502 0 0
lthumb 62.4084 42.3704 0
rclavicle 1.81317e-14 9.60056e-15 0
rhumerus -18.8388 -7.65157 -24.5388
rradius 84.862 0 0
rwrist -21.5565 0 0
rhand -32.7571 -47.2622 0
rfingers 7.12502 0 0
rthumb -5.96617 -545.868 0
205
root 4.87245 15.1927 -25.4733 7.26381 -0.222031 5.612
lfemur 7.70392 -8.30098 3.36151
ltibia 4.01532 0 0
lfoot -32.9036 -15.8143 0
ltoes 55.3452 0 0
rfemur -30.0741 -19.0391 -8.56631
rtibia 50.0625 0 0
rfoot -27.8474 16.4078 0
rtoes 59.1368 0 0
lowerback -2.47115 -1.8484 -1.03051
upperback -0.671291 -2.41682 -7.53112
thorax 0.397643 -1.22597 -7.32061
lowerneck -11.2726 0.460631 6.05811
upperneck 3.61428 -0.414609 2.70193
head 3.17064 0.00369773 -0.211039
lclavicle 1.44761e-14 1.08607e-14 0
lhumerus -58.9118 -45.1752 115.367
lradius 54.6199 0 0
lwrist 25.0649 0 0
lhand 39.5773 30.381 0
lfingers 7.12502 0 0
lthumb 62.145 42.5286 0
rclavicle 1.44761e-14 1.08607e-14 0
rhumerus -16.7418 -12.2893 -22.4627
rradius 81.8112 0 0
rwrist -21.6654 0 0
rhand -37.523 -50.6373 0
rfingers 7.12502 0 0
rthumb -10.5203 -559.557 0
206
root 4.84813 15.1676 -25.4852 7.31781 -0.416076 5.56082
lfemur 7.50372 -7.73073 3.10207
ltibia 4.49875 0 0
lfoot -33.4971 -14.8705 0
ltoes 54.556 0 0
rfemur -30.6629 -19.4134 -8.34559
rtibia 50.6025 0 0
rfoot -27.6345 16.8889 0
rtoes 59.3761 0 0
lowerback -2.30543 -1.82138 -0.999543
upperback -0.675237 -2.38932 -7.47548
thorax 0.30741 -1.21329 -7.27087
lowerneck -11.1597 0.556627 6.22775
upperneck 3.56298 -0.296442 2.58565
head 3.13238 0.0576166 -0.270641
lclavicle 1.10471e-14 1.1972e-14 0
lhumerus -59.1228 -45.3386 115.628
lradius 54.6721 0 0
lwrist 25.2924 0 0
lhand 39.2203 30.2123 0
lfingers 7.12502 0 0
lthumb 61.8391 42.6748 0
rclavicle 1.10471e-14 1.1972e-14 0
rhumerus -14.823 -16.6056 -20.6417
rradius 79.0232 0 0
rwrist -21.7899 0 0
rhand -41.7778 -53.7443 0
rfingers 7.12502 0 0
rthumb -14.5922 -572.839 0
207
root 4.82381 15.1425 -25.4972 7.37806 -0.553977 5.47839
lfemur 7.1909 -7.08367 2.85764
ltibia 5.08716 0 0
lfoot -33.9842 -13.9427 0
ltoes 53.6149 0 0
rfemur -31.1873 -19.7617 -8.10192
rtibia 51.0623 0 0
rfoot -27.4558 17.3 0
rtoes 59.5946 0 0
lowerback -2.14217 -1.7966 -0.961255
upperback -0.67847 -2.364 -7.39696
thorax 0.219552 -1.2016 -7.20192
lowerneck -11.0585 0.641813 6.36798
upperneck 3.50793 -0.18923 2.47193
head 3.09492 0.105928 -0.324967
lclavicle 7.92751e-15 1.29063e-14 0
lhumerus -59.3014 -45.469 115.883
lradius 54.7383 0 0
lwrist 25.4823 0 0
lhand 38.8147 30.0147 0
lfingers 7.12502 0 0
lthumb 61.4876 42.806 0
rclavicle 7.92751e-15 1.29063e-14 0
rhumerus -13.1157 -20.5211 -19.1136
rradius 76.5552 0 0
rwrist -21.9349 0 0
rhand -45.4152 -56.5209 0
rfingers 7.12502 0 0
rthumb -18.0807 -585.58 0
208
root 4.79949 15.1175 -25.5091 7.44564 -0.633087 5.36196
lfemur 6.75916 -6.36163 2.63572
ltibia 5.78325 0 0
lfoot -34.3522 -13.0441 0
ltoes 52.5163 0 0
rfemur -31.637 -20.0814 -7.83457
rtibia 51.4261 0 0
rfoot -27.3238 17.6371 0
rtoes 59.7914 0 0
lowerback -1.98354 -1.77392 -0.914868
upperback -0.68101 -2.34052 -7.29406
thorax 0.135221 -1.19069 -7.1128
lowerneck -10.9717 0.715671 6.47544
upperneck 3.44937 -0.0933503 2.3614
head 3.05871 0.148469 -0.373273
lclavicle 5.20013e-15 1.36356e-14 0
lhumerus -59.4441 -45.562 116.128
lradius 54.8205 0 0
lwrist 25.6305 0 0
lhand 38.3575 29.786 0
lfingers 7.12502 0 0
lthumb 61.0871 42.9196 0
rclavicle 5.20013e-15 1.36356e-14 0
rhumerus -11.6533 -23.9565 -17.9167
rradius 74.4642 0 0
rwrist -22.1052 0 0
rhand -48.3284 -58.9044 0
rfingers 7.12502 0 0
rthumb -20.8847 -597.645 0
209
root 4.77516 15.0924 -25.5211 7.52162 -0.650764 5.20875
lfemur 6.20221 -5.56645 2.44386
ltibia 6.58971 0 0
lfoot -34.5885 -12.188 0
ltoes 51.2545 0 0
rfemur -32.0018 -20.3696 -7.54281
rtibia 51.6785 0 0
rfoot -27.2511 17.8962 0
rtoes 59.9653 0 0
lowerback -1.83173 -1.75319 -0.859605
upperback -0.682879 -2.3185 -7.16527
thorax 0.0555686 -1.18037 -7.00256
lowerneck -10.9018 0.777683 6.54678
upperneck 3.38754 -0.00918131 2.25468
head 3.02424 0.185076 -0.414817
lclavicle 2.94771e-15 1.41318e-14 0
lhumerus -59.547 -45.6131 116.363
lradius 54.9204 0 0
lwrist 25.7323 0 0
lhand 37.8455 29.5241 0
lfingers 7.12502 0 0
lthumb 60.6345 43.0128 0
rclavicle 2.94771e-15 1.41318e-14 0
rhumerus -10.4691 -26.8321 -17.089
rradius 72.8077 0 0
rwrist -22.3058 0 0
rhand -50.4109 -60.8323 0
rfingers 7.12502 0 0
rthumb -22.9031 -608.899 0
210
root 4.75084 15.0673 -25.533 7.60708 -0.604362 5.01602
lfemur 5.51375 -4.69997 2.28955
ltibia 7.50925 0 0
lfoot -34.6807 -11.3879 0
ltoes 49.8236 0 0
rfemur -32.2714 -20.6234 -7.22593
rtibia 51.8034 0 0
rfoot -27.2502 18.0731 0
rtoes 60.1154 0 0
lowerback -1.68891 -1.7343 -0.794691
upperback -0.684098 -2.2976 -7.0091
thorax -0.0182519 -1.17045 -6.87025
lowerneck -10.8514 0.827331 6.57866
upperneck 3.32268 0.0628997 2.15237
head 2.99196 0.215583 -0.448856
lclavicle 1.25301e-15 1.43668e-14 0
lhumerus -59.6065 -45.6179 116.583
lradius 55.0398 0 0
lwrist 25.7836 0 0
lhand 37.2754 29.227 0
lfingers 7.12502 0 0
lthumb 60.1266 43.0826 0
rclavicle 1.25301e-15 1.43668e-14 0
rhumerus -9.59632 -29.0688 -16.6686
rradius 71.6428 0 0
rwrist -22.5416 0 0
rhand -51.556 -62.2421 0
rfingers 7.12502 0 0
rthumb -24.0349 -619.206 0
